<svg width="13" height="17" viewBox="0 0 13 17" fill="none" xmlns="http://www.w3.org/2000/svg">
<path d="M6.41991 11.1178C8.20421 11.1178 9.4057 9.92862 9.4057 8.22862V2.8892C9.4057 1.18122 8.20421 0 6.41991 0C4.62664 0 3.42515 1.18122 3.42515 2.8892V8.22862C3.42515 9.92862 4.62664 11.1178 6.41991 11.1178ZM0 8.35632C0 11.485 2.32228 13.6798 5.73846 13.9352V15.7948H2.41195C2.03536 15.7948 1.73051 16.0662 1.73051 16.4014C1.73051 16.7366 2.03536 17 2.41195 17H10.4189C10.7955 17 11.1003 16.7366 11.1003 16.4014C11.1003 16.0662 10.7955 15.7948 10.4189 15.7948H7.09238V13.9352C10.5175 13.6798 12.8308 11.485 12.8308 8.35632V6.73614C12.8308 6.40093 12.535 6.13755 12.1584 6.13755C11.7818 6.13755 11.4769 6.40093 11.4769 6.73614V8.30843C11.4769 11.03 9.4864 12.8338 6.41991 12.8338C3.34445 12.8338 1.35392 11.03 1.35392 8.30843V6.73614C1.35392 6.40093 1.05803 6.13755 0.672476 6.13755C0.29589 6.13755 0 6.40093 0 6.73614V8.35632Z" fill="black"/>
</svg>
