<svg width="18" height="16" viewBox="0 0 18 16" fill="none" xmlns="http://www.w3.org/2000/svg">
<path d="M13.656 9.90476H3.41399L0 12.9524V0.761905C0 0.559835 0.0899217 0.366042 0.249983 0.223157C0.410045 0.0802718 0.627136 0 0.853497 0H13.656C13.8823 0 14.0994 0.0802718 14.2595 0.223157C14.4195 0.366042 14.5095 0.559835 14.5095 0.761905V9.14286C14.5095 9.34493 14.4195 9.53872 14.2595 9.6816C14.0994 9.82449 13.8823 9.90476 13.656 9.90476ZM17.9234 5.33333V16L14.5095 12.9524H5.12098C4.89462 12.9524 4.67753 12.8721 4.51747 12.7292C4.35741 12.5863 4.26749 12.3925 4.26749 12.1905V11.4286H16.2164V4.57143H17.0699C17.2963 4.57143 17.5134 4.6517 17.6735 4.79459C17.8335 4.93747 17.9234 5.13126 17.9234 5.33333ZM5.28315 1.52381C4.5406 1.52381 3.94316 1.67619 3.48227 1.97333C3.03845 2.28571 2.81654 2.72 2.82508 3.3219L2.83361 3.34476H4.48086C4.48939 3.11619 4.56621 2.94095 4.71984 2.81905C4.87789 2.70205 5.07788 2.63984 5.28315 2.64381C5.54773 2.64381 5.76964 2.72 5.92327 2.85714C6.0769 3.0019 6.14518 3.2 6.14518 3.42857C6.14518 3.67238 6.08544 3.8781 5.94888 4.05333C5.82939 4.22857 5.65015 4.38095 5.42824 4.50286C4.99296 4.7619 4.69423 4.99048 4.53207 5.19619C4.36137 5.39429 4.26749 5.71429 4.26749 6.09524H5.97448C5.97448 5.85905 6.00862 5.66857 6.08543 5.53143C6.16225 5.39429 6.30734 5.25714 6.52072 5.13524C6.90479 4.95238 7.22059 4.73143 7.4681 4.42667C7.71561 4.1219 7.84364 3.80952 7.84364 3.42857C7.84364 2.84952 7.61319 2.38476 7.15231 2.0419C6.69995 1.69905 6.0769 1.52381 5.28315 1.52381ZM4.26749 6.85714V8.38095H5.97448V6.85714H4.26749ZM9.38847 8.38095H11.0955V6.85714H9.38847V8.38095ZM9.38847 1.52381V6.09524H11.0955V1.52381H9.38847Z" fill="#276A92"/>
</svg>
