<svg width="19" height="19" viewBox="0 0 19 19" fill="none" xmlns="http://www.w3.org/2000/svg">
<path d="M4.75 19C4.09028 19 3.52951 18.7591 3.06771 18.2772C2.6059 17.7953 2.375 17.2101 2.375 16.5217C2.375 15.8333 2.6059 15.2482 3.06771 14.7663C3.52951 14.2844 4.09028 14.0435 4.75 14.0435C4.93472 14.0435 5.10625 14.0641 5.26458 14.1054C5.42292 14.1467 5.57465 14.2018 5.71979 14.2707L6.84792 12.8043C6.47847 12.3775 6.22118 11.8957 6.07604 11.3587C5.9309 10.8217 5.89792 10.2848 5.97708 9.74783L4.37396 9.19022C4.14965 9.53442 3.86597 9.80978 3.52292 10.0163C3.17986 10.2228 2.79722 10.3261 2.375 10.3261C1.71528 10.3261 1.15451 10.0851 0.692708 9.60326C0.230903 9.12138 0 8.53623 0 7.84783C0 7.15942 0.230903 6.57428 0.692708 6.09239C1.15451 5.61051 1.71528 5.36957 2.375 5.36957C3.03472 5.36957 3.59549 5.61051 4.05729 6.09239C4.5191 6.57428 4.75 7.15942 4.75 7.84783V8.01304L6.35312 8.5913C6.61701 8.09565 6.9701 7.67572 7.41237 7.33152C7.85465 6.98732 8.35261 6.76703 8.90625 6.67065V4.87391C8.39167 4.72246 7.96628 4.42975 7.63008 3.99578C7.29389 3.56181 7.12553 3.05597 7.125 2.47826C7.125 1.78986 7.3559 1.20471 7.81771 0.722826C8.27951 0.240942 8.84028 0 9.5 0C10.1597 0 10.7205 0.240942 11.1823 0.722826C11.6441 1.20471 11.875 1.78986 11.875 2.47826C11.875 3.05652 11.7035 3.56264 11.3604 3.99661C11.0174 4.43058 10.5951 4.72301 10.0938 4.87391V6.67065C10.6479 6.76703 11.1461 6.98732 11.5884 7.33152C12.0307 7.67572 12.3835 8.09565 12.6469 8.5913L14.25 8.01304V7.84783C14.25 7.15942 14.4809 6.57428 14.9427 6.09239C15.4045 5.61051 15.9653 5.36957 16.625 5.36957C17.2847 5.36957 17.8455 5.61051 18.3073 6.09239C18.7691 6.57428 19 7.15942 19 7.84783C19 8.53623 18.7691 9.12138 18.3073 9.60326C17.8455 10.0851 17.2847 10.3261 16.625 10.3261C16.2028 10.3261 15.8167 10.2228 15.4668 10.0163C15.1169 9.80978 14.8366 9.53442 14.626 9.19022L13.0229 9.74783C13.1021 10.2848 13.0691 10.8184 12.924 11.3488C12.7788 11.8791 12.5215 12.3643 12.1521 12.8043L13.2802 14.25C13.4253 14.1812 13.5771 14.1297 13.7354 14.0955C13.8938 14.0614 14.0653 14.044 14.25 14.0435C14.9097 14.0435 15.4705 14.2844 15.9323 14.7663C16.3941 15.2482 16.625 15.8333 16.625 16.5217C16.625 17.2101 16.3941 17.7953 15.9323 18.2772C15.4705 18.7591 14.9097 19 14.25 19C13.5903 19 13.0295 18.7591 12.5677 18.2772C12.1059 17.7953 11.875 17.2101 11.875 16.5217C11.875 16.2464 11.918 15.9815 12.004 15.727C12.0901 15.4726 12.2054 15.2419 12.35 15.0348L11.2219 13.5685C10.6809 13.8851 10.1038 14.0435 9.4905 14.0435C8.87722 14.0435 8.29983 13.8851 7.75833 13.5685L6.65 15.0348C6.79514 15.2413 6.91072 15.4721 6.99675 15.727C7.08278 15.982 7.12553 16.2469 7.125 16.5217C7.125 17.2101 6.8941 17.7953 6.43229 18.2772C5.97049 18.7591 5.40972 19 4.75 19ZM2.375 8.67391C2.59931 8.67391 2.78746 8.59461 2.93946 8.436C3.09146 8.27739 3.16719 8.08133 3.16667 7.84783C3.16667 7.61377 3.09067 7.41771 2.93867 7.25965C2.78667 7.10159 2.59878 7.02229 2.375 7.02174C2.15069 7.02174 1.96281 7.10104 1.81133 7.25965C1.65986 7.41826 1.58386 7.61432 1.58333 7.84783C1.58333 8.08188 1.65933 8.27822 1.81133 8.43683C1.96333 8.59544 2.15122 8.67446 2.375 8.67391ZM4.75 17.3478C4.97431 17.3478 5.16246 17.2685 5.31446 17.1099C5.46646 16.9513 5.54219 16.7552 5.54167 16.5217C5.54167 16.2877 5.46567 16.0916 5.31367 15.9336C5.16167 15.7755 4.97378 15.6962 4.75 15.6957C4.52569 15.6957 4.33781 15.775 4.18633 15.9336C4.03486 16.0922 3.95886 16.2882 3.95833 16.5217C3.95833 16.7558 4.03433 16.9521 4.18633 17.1107C4.33833 17.2693 4.52622 17.3484 4.75 17.3478ZM9.5 3.30435C9.72431 3.30435 9.91246 3.22504 10.0645 3.06643C10.2165 2.90783 10.2922 2.71177 10.2917 2.47826C10.2917 2.2442 10.2157 2.04815 10.0637 1.89009C9.91167 1.73203 9.72378 1.65272 9.5 1.65217C9.27569 1.65217 9.0878 1.73148 8.93633 1.89009C8.78486 2.0487 8.70886 2.24475 8.70833 2.47826C8.70833 2.71232 8.78433 2.90865 8.93633 3.06726C9.08833 3.22587 9.27622 3.3049 9.5 3.30435ZM9.5 12.3913C10.0542 12.3913 10.5226 12.1917 10.9052 11.7924C11.2878 11.3931 11.4792 10.9043 11.4792 10.3261C11.4792 9.74783 11.2878 9.25906 10.9052 8.85978C10.5226 8.46051 10.0542 8.26087 9.5 8.26087C8.94583 8.26087 8.47743 8.46051 8.09479 8.85978C7.71215 9.25906 7.52083 9.74783 7.52083 10.3261C7.52083 10.9043 7.71215 11.3931 8.09479 11.7924C8.47743 12.1917 8.94583 12.3913 9.5 12.3913ZM14.25 17.3478C14.4743 17.3478 14.6625 17.2685 14.8145 17.1099C14.9665 16.9513 15.0422 16.7552 15.0417 16.5217C15.0417 16.2877 14.9657 16.0916 14.8137 15.9336C14.6617 15.7755 14.4738 15.6962 14.25 15.6957C14.0257 15.6957 13.8378 15.775 13.6863 15.9336C13.5349 16.0922 13.4589 16.2882 13.4583 16.5217C13.4583 16.7558 13.5343 16.9521 13.6863 17.1107C13.8383 17.2693 14.0262 17.3484 14.25 17.3478ZM16.625 8.67391C16.8493 8.67391 17.0375 8.59461 17.1895 8.436C17.3415 8.27739 17.4172 8.08133 17.4167 7.84783C17.4167 7.61377 17.3407 7.41771 17.1887 7.25965C17.0367 7.10159 16.8488 7.02229 16.625 7.02174C16.4007 7.02174 16.2128 7.10104 16.0613 7.25965C15.9099 7.41826 15.8339 7.61432 15.8333 7.84783C15.8333 8.08188 15.9093 8.27822 16.0613 8.43683C16.2133 8.59544 16.4012 8.67446 16.625 8.67391Z" fill="white"/>
</svg>
