<svg width="38" height="29" viewBox="0 0 38 29" fill="none" xmlns="http://www.w3.org/2000/svg">
<rect width="414" height="736" transform="translate(-15.4252 -314)" fill="white"/>
<path d="M24.729 2.41669H12.3645C11.1348 2.41669 9.95539 2.79861 9.08585 3.47843C8.2163 4.15824 7.7278 5.08028 7.7278 6.04169V25.375C7.72671 25.5879 7.79762 25.7973 7.93332 25.9819C8.06903 26.1665 8.26472 26.3198 8.50058 26.4263C8.73553 26.5323 9.00205 26.5882 9.27336 26.5882C9.54466 26.5882 9.81118 26.5323 10.0461 26.4263L18.5467 22.5838L27.0473 26.4263C27.2828 26.5306 27.5493 26.5848 27.8201 26.5834C28.0908 26.5848 28.3573 26.5306 28.5929 26.4263C28.8287 26.3198 29.0244 26.1665 29.1601 25.9819C29.2958 25.7973 29.3667 25.5879 29.3656 25.375V6.04169C29.3656 5.08028 28.8771 4.15824 28.0076 3.47843C27.138 2.79861 25.9587 2.41669 24.729 2.41669ZM26.2745 23.2846L19.3195 20.1429C19.0845 20.0369 18.818 19.9811 18.5467 19.9811C18.2754 19.9811 18.0089 20.0369 17.7739 20.1429L10.8189 23.2846V6.04169C10.8189 5.72122 10.9818 5.41387 11.2716 5.18727C11.5614 4.96066 11.9546 4.83335 12.3645 4.83335H24.729C25.1389 4.83335 25.532 4.96066 25.8218 5.18727C26.1117 5.41387 26.2745 5.72122 26.2745 6.04169V23.2846Z" fill="#276A92"/>
</svg>
