<svg width="26" height="21" viewBox="0 0 26 21" fill="none" xmlns="http://www.w3.org/2000/svg">
<path d="M25.6398 13.1693L23.6334 11.8567C23.7283 11.4113 23.7774 10.9566 23.7774 10.5019C23.7774 10.0472 23.7283 9.59247 23.6334 9.14712L25.6398 7.83453C25.7912 7.7354 25.8995 7.60336 25.9504 7.45599C26.0013 7.30861 25.9923 7.15287 25.9247 7.00947L25.8972 6.94853C25.3448 5.76726 24.5176 4.67221 23.4557 3.71627L23.4006 3.66705C23.2717 3.55115 23.1 3.46784 22.9081 3.42809C22.7162 3.38834 22.513 3.39402 22.3253 3.44438L19.8349 4.12177C18.9159 3.54517 17.8897 3.09045 16.7808 2.77168L16.2998 0.779351C16.2635 0.62944 16.1685 0.491524 16.0273 0.383928C15.8862 0.276331 15.7056 0.204147 15.5095 0.176965L15.4268 0.165246C13.8308 -0.055082 12.1521 -0.055082 10.5561 0.165246L10.4734 0.176965C10.2774 0.204147 10.0968 0.276331 9.95559 0.383928C9.81443 0.491524 9.71939 0.62944 9.6831 0.779351L9.1991 2.78105C8.09903 3.09989 7.0746 3.55437 6.16643 4.12646L3.65759 3.44438C3.47001 3.39362 3.26668 3.38773 3.07463 3.4275C2.88257 3.46728 2.71088 3.55083 2.58237 3.66705L2.52723 3.71627C1.46655 4.67288 0.63955 5.76775 0.0857787 6.94853L0.0582089 7.00947C-0.0796397 7.30246 0.0337026 7.63061 0.343096 7.83453L2.37407 9.16119C2.2791 9.60184 2.23315 10.0519 2.23315 10.4996C2.23315 10.9496 2.2791 11.3996 2.37407 11.8379L0.343096 13.1646C0.191756 13.2637 0.0834397 13.3958 0.0325507 13.5431C-0.0183383 13.6905 -0.00938903 13.8463 0.0582089 13.9896L0.0857787 14.0506C0.640236 15.2319 1.4612 16.3218 2.52723 17.2828L2.58237 17.3321C2.71119 17.448 2.88289 17.5313 3.07483 17.571C3.26677 17.6108 3.46995 17.6051 3.65759 17.5547L6.16643 16.8727C7.0793 17.4469 8.09938 17.9016 9.1991 18.2181L9.6831 20.2198C9.71939 20.3697 9.81443 20.5076 9.95559 20.6152C10.0968 20.7228 10.2774 20.795 10.4734 20.8222L10.5561 20.8339C12.1668 21.0554 13.8161 21.0554 15.4268 20.8339L15.5095 20.8222C15.7056 20.795 15.8862 20.7228 16.0273 20.6152C16.1685 20.5076 16.2635 20.3697 16.2998 20.2198L16.7808 18.2274C17.8892 17.9095 18.9212 17.4533 19.8349 16.8774L22.3253 17.5547C22.5129 17.6055 22.7163 17.6114 22.9083 17.5716C23.1004 17.5318 23.2721 17.4483 23.4006 17.3321L23.4557 17.2828C24.5217 16.3195 25.3427 15.2319 25.8972 14.0506L25.9247 13.9896C26.0626 13.7013 25.9492 13.3732 25.6398 13.1693ZM21.4584 9.4237C21.535 9.77763 21.5748 10.1409 21.5748 10.5042C21.5748 10.8676 21.535 11.2309 21.4584 11.5848L21.2563 12.5247L23.5445 14.0225C23.1976 14.634 22.7598 15.2128 22.2396 15.7476L19.3968 14.9764L18.435 15.5812C17.7028 16.0406 16.888 16.4015 16.0058 16.6547L14.8386 16.9899L14.2903 19.2635C13.4251 19.3385 12.5517 19.3385 11.6865 19.2635L11.1382 16.9852L9.98024 16.6453C9.1072 16.3922 8.29543 16.0312 7.56942 15.5741L6.60755 14.9671L3.74642 15.7452C3.22566 15.2085 2.79067 14.6295 2.44146 14.0201L4.75425 12.5083L4.55514 11.5707C4.48162 11.2215 4.44179 10.8605 4.44179 10.5042C4.44179 10.1456 4.47855 9.78701 4.55514 9.43777L4.75425 8.5002L2.44146 6.98838C2.78761 6.37662 3.22566 5.80001 3.74642 5.26326L6.60755 6.04144L7.56942 5.43436C8.29543 4.9773 9.1072 4.61634 9.98024 4.36319L11.1412 4.02802L11.6896 1.74973C12.5504 1.67473 13.4295 1.67473 14.2934 1.74973L14.8417 4.02333L16.0088 4.35851C16.888 4.61165 17.7059 4.97261 18.438 5.43202L19.3999 6.03675L22.2426 5.2656C22.7634 5.80236 23.1984 6.3813 23.5476 6.99072L21.2593 8.48848L21.4584 9.4237ZM12.9945 6.14457C10.017 6.14457 7.60312 7.99157 7.60312 10.2699C7.60312 12.5481 10.017 14.3951 12.9945 14.3951C15.9721 14.3951 18.3859 12.5481 18.3859 10.2699C18.3859 7.99157 15.9721 6.14457 12.9945 6.14457ZM15.4207 12.1262C15.1025 12.3704 14.7243 12.564 14.3079 12.696C13.8916 12.8279 13.4452 12.8956 12.9945 12.895C12.0786 12.895 11.2178 12.6208 10.5684 12.1262C10.2493 11.8828 9.99621 11.5934 9.82378 11.2748C9.65134 10.9562 9.56293 10.6147 9.56363 10.2699C9.56363 9.56903 9.92204 8.91039 10.5684 8.41348C11.2178 7.91657 12.0786 7.64467 12.9945 7.64467C13.9105 7.64467 14.7712 7.91657 15.4207 8.41348C15.7398 8.65696 15.9929 8.94632 16.1653 9.26491C16.3377 9.5835 16.4261 9.92503 16.4254 10.2699C16.4254 10.9707 16.067 11.6293 15.4207 12.1262Z" fill="#276A92"/>
</svg>
