<svg width="17" height="15" viewBox="0 0 17 15" fill="none" xmlns="http://www.w3.org/2000/svg">
<path d="M6.8168 12.1357C8.29717 12.1357 9.6623 11.7096 10.7792 10.9995L14.981 14.7396C15.176 14.9132 15.4331 15 15.7079 15C16.2841 15 16.6918 14.6055 16.6918 14.1005C16.6918 13.8638 16.6032 13.6349 16.4082 13.4692L12.233 9.74488C13.1106 8.7191 13.6336 7.44872 13.6336 6.06787C13.6336 2.73014 10.5665 0 6.8168 0C3.07598 0 0 2.72225 0 6.06787C0 9.40559 3.06712 12.1357 6.8168 12.1357ZM6.8168 10.8259C3.89151 10.8259 1.47151 8.67176 1.47151 6.06787C1.47151 3.46397 3.89151 1.30984 6.8168 1.30984C9.74208 1.30984 12.1621 3.46397 12.1621 6.06787C12.1621 8.67176 9.74208 10.8259 6.8168 10.8259Z" fill="black"/>
</svg>
