<svg width="21" height="17" viewBox="0 0 21 17" fill="none" xmlns="http://www.w3.org/2000/svg">
<path d="M8.11833 6.37498C8.63764 5.85648 9.42382 5.52498 10.3038 5.52498C11.1837 5.52498 11.9699 5.85648 12.4892 6.37498C12.8311 6.71694 13.0481 7.13206 13.1148 7.5719C13.1816 8.01173 13.0953 8.45817 12.8662 8.85911C12.6371 9.26006 12.2744 9.59899 11.8206 9.83637C11.3668 10.0737 10.8406 10.1998 10.3032 10.1998C9.7659 10.1998 9.23964 10.0737 8.78584 9.83637C8.33205 9.59899 7.96943 9.26006 7.74028 8.85911C7.51113 8.45817 7.42491 8.01173 7.49166 7.5719C7.55842 7.13206 7.7754 6.71694 8.1173 6.37498M14.1666 7.86248C14.1666 7.32528 14.0059 6.81868 13.7215 6.37498H18.0316C18.4415 6.37498 18.8346 6.50931 19.1244 6.74841C19.4143 6.98752 19.5771 7.31182 19.5771 7.64998V8.07498C19.5771 9.42393 18.3345 10.8052 16.1614 11.2914C15.9381 10.9605 15.6116 10.6848 15.2158 10.4929C14.82 10.301 14.3692 10.1999 13.9101 10.2H12.9312C13.3218 9.90188 13.6332 9.54029 13.846 9.138C14.0588 8.7357 14.1683 8.30141 14.1677 7.86248M13.9101 11.05C14.1132 11.0495 14.3144 11.0822 14.5022 11.1461C14.6899 11.21 14.8605 11.3039 15.0041 11.4224C15.1478 11.5409 15.2616 11.6816 15.3391 11.8365C15.4166 11.9914 15.4562 12.1574 15.4556 12.325V12.75C15.4556 14.4253 13.5391 16.15 10.3038 16.15C7.06838 16.15 5.15189 14.4253 5.15189 12.75V12.325C5.15134 12.1574 5.19095 11.9914 5.26843 11.8365C5.34591 11.6816 5.45973 11.5409 5.60336 11.4224C5.74699 11.3039 5.91758 11.21 6.10535 11.1461C6.29311 11.0822 6.49433 11.0495 6.69745 11.05H13.9101ZM1.0304 8.07498C1.0304 9.42393 2.27303 10.8052 4.44608 11.2914C4.6694 10.9605 4.99587 10.6848 5.3917 10.4929C5.78753 10.301 6.23833 10.1999 6.69745 10.2H7.6763C7.28576 9.90188 6.97428 9.54029 6.76148 9.138C6.54868 8.7357 6.43917 8.30141 6.43986 7.86248C6.43986 7.32528 6.60059 6.81868 6.88601 6.37498H2.57596C2.16605 6.37498 1.77293 6.50931 1.48308 6.74841C1.19323 6.98752 1.0304 7.31182 1.0304 7.64998V8.07498ZM9.01579 3.18748C9.01579 2.56753 8.71726 1.97298 8.18587 1.53461C7.65448 1.09625 6.93376 0.849976 6.18226 0.849976C5.43076 0.849976 4.71004 1.09625 4.17866 1.53461C3.64727 1.97298 3.34874 2.56753 3.34874 3.18748C3.34874 3.80742 3.64727 4.40197 4.17866 4.84034C4.71004 5.2787 5.43076 5.52498 6.18226 5.52498C6.93376 5.52498 7.65448 5.2787 8.18587 4.84034C8.71726 4.40197 9.01579 3.80742 9.01579 3.18748ZM17.2588 3.18748C17.2588 2.56753 16.9602 1.97298 16.4289 1.53461C15.8975 1.09625 15.1767 0.849976 14.4252 0.849976C13.6737 0.849976 12.953 1.09625 12.4216 1.53461C11.8903 1.97298 11.5917 2.56753 11.5917 3.18748C11.5917 3.80742 11.8903 4.40197 12.4216 4.84034C12.953 5.2787 13.6737 5.52498 14.4252 5.52498C15.1767 5.52498 15.8975 5.2787 16.4289 4.84034C16.9602 4.40197 17.2588 3.80742 17.2588 3.18748Z" fill="#276A92"/>
</svg>
