<svg width="15" height="15" viewBox="0 0 15 15" fill="none" xmlns="http://www.w3.org/2000/svg">
<path d="M13.9091 6.83262L11.0388 9.56628L11.8986 13.6362C11.9441 13.849 11.9311 14.0717 11.8613 14.2764C11.7914 14.4812 11.6678 14.6589 11.5059 14.7874C11.344 14.9159 11.151 14.9895 10.951 14.999C10.751 15.0084 10.5528 14.9533 10.3814 14.8405L7.12859 12.6875L3.88283 14.8405C3.71136 14.9533 3.51323 15.0084 3.31322 14.999C3.1132 14.9895 2.92018 14.9159 2.75827 14.7874C2.59637 14.6589 2.47277 14.4812 2.40293 14.2764C2.33308 14.0717 2.3201 13.849 2.3656 13.6362L3.22414 9.57045L0.353229 6.83262C0.201384 6.68971 0.0915842 6.50104 0.0375987 6.2903C-0.0163867 6.07955 -0.0121545 5.8561 0.0497646 5.64797C0.111684 5.43984 0.228533 5.25629 0.38566 5.12035C0.542787 4.9844 0.733197 4.9021 0.933011 4.88378L4.71719 4.5261L6.19432 0.681193C6.27146 0.479444 6.40158 0.307112 6.56828 0.185896C6.73498 0.06468 6.93082 0 7.13114 0C7.33146 0 7.5273 0.06468 7.694 0.185896C7.86071 0.307112 7.99082 0.479444 8.06796 0.681193L9.54955 4.5261L13.3325 4.88378C13.5323 4.9021 13.7227 4.9844 13.8798 5.12035C14.0369 5.25629 14.1538 5.43984 14.2157 5.64797C14.2776 5.8561 14.2818 6.07955 14.2279 6.2903C14.1739 6.50104 14.0641 6.68971 13.9122 6.83262H13.9091Z" fill="#F2BD00"/>
</svg>
