<svg width="19" height="18" viewBox="0 0 19 18" fill="none" xmlns="http://www.w3.org/2000/svg">
<path d="M19 12.7224C18.9995 13.8822 18.5555 15.0071 17.7412 15.9108C16.927 16.8145 15.7915 17.4429 14.5226 17.692L13.9165 16.0688C14.4715 15.9872 14.9994 15.7967 15.462 15.5111C15.9246 15.2254 16.3104 14.8517 16.5917 14.4168H14.25C13.7461 14.4168 13.2628 14.2382 12.9065 13.9201C12.5502 13.602 12.35 13.1706 12.35 12.7207V9.32855C12.35 8.87871 12.5502 8.4473 12.9065 8.12922C13.2628 7.81114 13.7461 7.63245 14.25 7.63245H17.0411C16.8092 5.99308 15.9152 4.48557 14.5268 3.39277C13.1384 2.29998 11.351 1.69701 9.49998 1.69701C7.64896 1.69701 5.86155 2.29998 4.47314 3.39277C3.08472 4.48557 2.19072 5.99308 1.9589 7.63245H4.74999C5.2539 7.63245 5.73717 7.81114 6.09349 8.12922C6.44981 8.4473 6.64999 8.87871 6.64999 9.32855V12.7207C6.64999 13.1706 6.44981 13.602 6.09349 13.9201C5.73717 14.2382 5.2539 14.4168 4.74999 14.4168H1.9C1.39609 14.4168 0.912814 14.2382 0.556496 13.9201C0.200178 13.602 0 13.1706 0 12.7207V8.4805C0 3.79672 4.25314 0 9.49998 0C14.7468 0 19 3.79672 19 8.4805V12.7224ZM17.1 12.7207V9.32855H14.25V12.7207H17.1ZM1.9 9.32855V12.7207H4.74999V9.32855H1.9Z" fill="#276A92"/>
</svg>
