<svg width="21" height="18" viewBox="0 0 21 18" fill="none" xmlns="http://www.w3.org/2000/svg">
<path d="M14.6781 2.92206L17.9667 6.09377C18.1052 6.22739 18.1052 6.4454 17.9667 6.57902L10.0042 14.2586L6.62083 14.6208C6.16875 14.6701 5.78594 14.3008 5.83698 13.8648L6.2125 10.6017L14.175 2.92206C14.3135 2.78844 14.5396 2.78844 14.6781 2.92206ZM20.5844 2.11682L18.8052 0.40086C18.251 -0.13362 17.3505 -0.13362 16.7927 0.40086L15.5021 1.64563C15.3635 1.77925 15.3635 1.99727 15.5021 2.13089L18.7906 5.3026C18.9292 5.43622 19.1552 5.43622 19.2937 5.3026L20.5844 4.05782C21.1385 3.51983 21.1385 2.6513 20.5844 2.11682ZM14 12.17V15.7496H2.33333V4.49736H10.7115C10.8281 4.49736 10.9375 4.45165 11.0214 4.37429L12.4797 2.96777C12.7568 2.70053 12.5599 2.24692 12.1698 2.24692H1.75C0.783854 2.24692 0 3.00293 0 3.93475V16.3122C0 17.244 0.783854 18 1.75 18H14.5833C15.5495 18 16.3333 17.244 16.3333 16.3122V10.7634C16.3333 10.3872 15.863 10.2008 15.5859 10.4645L14.1276 11.8711C14.0474 11.9519 14 12.0574 14 12.17Z" fill="black"/>
</svg>
